# Wavefront OBJ file automatically generated by Tiled2Unity

# Vertices (Count = 124)
v -4 -16 0
v -5 -16 0
v -5 -15 0
v -4 -15 0
v -6 -16 0
v -6 -15 0
v -7 -16 0
v -8 -16 0
v -8 -15 0
v -7 -15 0
v -9 -16 0
v -9 -15 0
v -10 -16 0
v -11 -16 0
v -11 -15 0
v -10 -15 0
v -12 -16 0
v -12 -15 0
v -4 -17 0
v -5 -17 0
v -6 -17 0
v -7 -17 0
v -8 -17 0
v -9 -17 0
v -10 -17 0
v -11 -17 0
v -12 -17 0
v -4 -18 0
v -5 -18 0
v -6 -18 0
v -7 -18 0
v -8 -18 0
v -9 -18 0
v -10 -18 0
v -11 -18 0
v -12 -18 0
v -4 -19 0
v -5 -19 0
v -6 -19 0
v -7 -19 0
v -8 -19 0
v -9 -19 0
v -10 -19 0
v -11 -19 0
v -12 -19 0
v -4 -20 0
v -5 -20 0
v -6 -20 0
v -7 -20 0
v -8 -20 0
v -9 -20 0
v -10 -20 0
v -11 -20 0
v -12 -20 0
v -4 -21 0
v -5 -21 0
v -6 -21 0
v -7 -21 0
v -8 -21 0
v -9 -21 0
v -10 -21 0
v -11 -21 0
v -12 -21 0
v -4 -22 0
v -5 -22 0
v -6 -22 0
v -7 -22 0
v -8 -22 0
v -9 -22 0
v -10 -22 0
v -11 -22 0
v -12 -22 0
v -4 -23 0
v -5 -23 0
v -6 -23 0
v -7 -23 0
v -8 -23 0
v -9 -23 0
v -10 -23 0
v -11 -23 0
v -12 -23 0
v -4 -24 0
v -5 -24 0
v -6 -24 0
v -7 -24 0
v -8 -24 0
v -9 -24 0
v -10 -24 0
v -11 -24 0
v -12 -24 0
v -4 -25 0
v -5 -25 0
v -6 -25 0
v -7 -25 0
v -8 -25 0
v -9 -25 0
v -10 -25 0
v -11 -25 0
v -12 -25 0
v 0 -26 0
v -1 -26 0
v -1 -25 0
v 0 -25 0
v -2 -26 0
v -2 -25 0
v -3 -26 0
v -3 -25 0
v -4 -26 0
v -5 -26 0
v -6 -26 0
v -7 -26 0
v -8 -26 0
v -9 -26 0
v -10 -26 0
v -11 -26 0
v -12 -26 0
v -13 -26 0
v -13 -25 0
v -14 -26 0
v -14 -25 0
v -15 -26 0
v -15 -25 0
v -16 -26 0
v -16 -25 0

# Texture Coorindates (Count = 8)
vt 0.5001221 0.0001220703
vt 0.9998779 0.0001220703
vt 0.9998779 0.9998779
vt 0.5001221 0.9998779
vt 0.0001220703 0.0001220703
vt 0.4998779 0.0001220703
vt 0.4998779 0.9998779
vt 0.0001220703 0.9998779

# Normal
vn 0 0 -1

# Groups (Count = 4)
g mesh_[00]_[00]
f  1/1/1  2/2/1  3/3/1  4/4/1 
f  2/5/1  5/6/1  6/7/1  3/8/1 
f  7/1/1  8/2/1  9/3/1  10/4/1 
f  8/1/1  11/2/1  12/3/1  9/4/1 
f  13/1/1  14/2/1  15/3/1  16/4/1 
f  14/1/1  17/2/1  18/3/1  15/4/1 
f  19/1/1  20/2/1  2/3/1  1/4/1 
f  20/1/1  21/2/1  5/3/1  2/4/1 
f  21/1/1  22/2/1  7/3/1  5/4/1 
f  22/1/1  23/2/1  8/3/1  7/4/1 
f  23/1/1  24/2/1  11/3/1  8/4/1 
f  24/1/1  25/2/1  13/3/1  11/4/1 
f  25/5/1  26/6/1  14/7/1  13/8/1 
f  26/1/1  27/2/1  17/3/1  14/4/1 
f  28/1/1  29/2/1  20/3/1  19/4/1 
f  29/1/1  30/2/1  21/3/1  20/4/1 
f  30/1/1  31/2/1  22/3/1  21/4/1 
f  31/1/1  32/2/1  23/3/1  22/4/1 
f  32/1/1  33/2/1  24/3/1  23/4/1 
f  33/1/1  34/2/1  25/3/1  24/4/1 
f  34/1/1  35/2/1  26/3/1  25/4/1 
f  35/1/1  36/2/1  27/3/1  26/4/1 
f  37/1/1  38/2/1  29/3/1  28/4/1 
f  38/5/1  39/6/1  30/7/1  29/8/1 
f  39/1/1  40/2/1  31/3/1  30/4/1 
f  40/1/1  41/2/1  32/3/1  31/4/1 
f  41/1/1  42/2/1  33/3/1  32/4/1 
f  42/1/1  43/2/1  34/3/1  33/4/1 
f  43/1/1  44/2/1  35/3/1  34/4/1 
f  44/1/1  45/2/1  36/3/1  35/4/1 
f  46/1/1  47/2/1  38/3/1  37/4/1 
f  47/1/1  48/2/1  39/3/1  38/4/1 
f  48/1/1  49/2/1  40/3/1  39/4/1 
f  49/1/1  50/2/1  41/3/1  40/4/1 
f  50/1/1  51/2/1  42/3/1  41/4/1 
f  51/1/1  52/2/1  43/3/1  42/4/1 
f  52/1/1  53/2/1  44/3/1  43/4/1 
f  53/1/1  54/2/1  45/3/1  44/4/1 
f  55/1/1  56/2/1  47/3/1  46/4/1 
f  56/1/1  57/2/1  48/3/1  47/4/1 
f  57/1/1  58/2/1  49/3/1  48/4/1 
f  58/1/1  59/2/1  50/3/1  49/4/1 
f  59/1/1  60/2/1  51/3/1  50/4/1 
f  60/5/1  61/6/1  52/7/1  51/8/1 
f  61/1/1  62/2/1  53/3/1  52/4/1 
f  62/1/1  63/2/1  54/3/1  53/4/1 
f  64/1/1  65/2/1  56/3/1  55/4/1 
f  65/1/1  66/2/1  57/3/1  56/4/1 
f  66/1/1  67/2/1  58/3/1  57/4/1 
f  67/1/1  68/2/1  59/3/1  58/4/1 
f  68/1/1  69/2/1  60/3/1  59/4/1 
f  69/1/1  70/2/1  61/3/1  60/4/1 
f  70/1/1  71/2/1  62/3/1  61/4/1 
f  71/1/1  72/2/1  63/3/1  62/4/1 
f  73/1/1  74/2/1  65/3/1  64/4/1 
f  74/1/1  75/2/1  66/3/1  65/4/1 
f  75/1/1  76/2/1  67/3/1  66/4/1 
f  76/1/1  77/2/1  68/3/1  67/4/1 
f  77/1/1  78/2/1  69/3/1  68/4/1 
f  78/1/1  79/2/1  70/3/1  69/4/1 
f  79/1/1  80/2/1  71/3/1  70/4/1 
f  80/1/1  81/2/1  72/3/1  71/4/1 
f  82/1/1  83/2/1  74/3/1  73/4/1 
f  83/1/1  84/2/1  75/3/1  74/4/1 
f  84/1/1  85/2/1  76/3/1  75/4/1 
f  85/1/1  86/2/1  77/3/1  76/4/1 
f  86/1/1  87/2/1  78/3/1  77/4/1 
f  87/5/1  88/6/1  79/7/1  78/8/1 
f  88/1/1  89/2/1  80/3/1  79/4/1 
f  89/1/1  90/2/1  81/3/1  80/4/1 
f  91/1/1  92/2/1  83/3/1  82/4/1 
f  92/5/1  93/6/1  84/7/1  83/8/1 
f  93/1/1  94/2/1  85/3/1  84/4/1 
f  94/1/1  95/2/1  86/3/1  85/4/1 
f  95/1/1  96/2/1  87/3/1  86/4/1 
f  96/1/1  97/2/1  88/3/1  87/4/1 
f  97/1/1  98/2/1  89/3/1  88/4/1 
f  98/1/1  99/2/1  90/3/1  89/4/1 
g mesh_[00]_[04]
f  100/5/1  101/2/1  102/3/1  103/8/1 
f  101/5/1  104/2/1  105/3/1  102/8/1 
f  104/5/1  106/2/1  107/3/1  105/8/1 
f  106/5/1  108/2/1  91/3/1  107/8/1 
f  108/5/1  109/2/1  92/3/1  91/8/1 
f  109/5/1  110/2/1  93/3/1  92/8/1 
f  110/5/1  111/2/1  94/3/1  93/8/1 
f  111/5/1  112/2/1  95/3/1  94/8/1 
f  112/5/1  113/2/1  96/3/1  95/8/1 
f  113/5/1  114/2/1  97/3/1  96/8/1 
f  114/5/1  115/2/1  98/3/1  97/8/1 
f  115/5/1  116/2/1  99/3/1  98/8/1 
f  116/5/1  117/2/1  118/3/1  99/8/1 
f  117/5/1  119/2/1  120/3/1  118/8/1 
f  119/5/1  121/2/1  122/3/1  120/8/1 
f  121/5/1  123/2/1  124/3/1  122/8/1 
g mesh_[01]_[01]
f  28/5/1  29/2/1  20/3/1  19/8/1 
f  35/5/1  36/2/1  27/3/1  26/8/1 
f  37/5/1  38/2/1  29/3/1  28/8/1 
f  44/5/1  45/2/1  36/3/1  35/8/1 
f  46/5/1  47/2/1  38/3/1  37/8/1 
f  53/5/1  54/2/1  45/3/1  44/8/1 
f  55/5/1  56/2/1  47/3/1  46/8/1 
f  62/5/1  63/2/1  54/3/1  53/8/1 
f  64/5/1  65/2/1  56/3/1  55/8/1 
f  71/5/1  72/2/1  63/3/1  62/8/1 
f  73/5/1  74/2/1  65/3/1  64/8/1 
f  80/5/1  81/2/1  72/3/1  71/8/1 
g mesh_[01]_[07]
f  82/5/1  83/2/1  74/3/1  73/8/1 
f  89/5/1  90/2/1  81/3/1  80/8/1 
